<svg width="20" height="20" viewBox="0 0 20 20" fill="none" xmlns="http://www.w3.org/2000/svg">
<path d="M20 0.838057L19.1742 0.00756836L16.916 2.25302L9.59496 1.40336L0 10.9858L8.99492 19.9924L18.5898 10.41L17.7485 3.07683L20 0.838057ZM17.3618 9.98128L8.99597 18.3362L1.65625 10.9868L10.0221 2.63192L15.8543 3.30879L14.6815 4.47497C14.4724 4.38202 14.2444 4.33267 14.0086 4.33267C13.5664 4.33267 13.1506 4.50475 12.8377 4.81725C12.1912 5.46289 12.1905 6.51418 12.8361 7.16068C13.1492 7.47416 13.5656 7.64678 14.0086 7.64678C14.4509 7.64678 14.8667 7.4747 15.1796 7.16221C15.6832 6.65928 15.7948 5.91035 15.5145 5.29823L16.6904 4.12898L17.3618 9.98128ZM14.352 6.33355C14.2603 6.42518 14.1383 6.47565 14.0086 6.47565C13.8787 6.47565 13.7566 6.42502 13.6648 6.33312C13.4755 6.14356 13.4757 5.83524 13.6652 5.6459C13.757 5.55424 13.879 5.50381 14.0086 5.50381C14.1386 5.50381 14.2607 5.55444 14.3525 5.64633C14.5418 5.8359 14.5416 6.14422 14.352 6.33355Z" fill="#0061DF"/>
</svg>
